<svg xmlns="http://www.w3.org/2000/svg" viewBox="0 0 1200 630" role="img" aria-labelledby="title desc"><title id="title">AESOST</title><desc id="desc">에이소스트 소셜 미리보기</desc><defs><linearGradient id="bg" x1="0" y1="0" x2="1" y2="1"><stop stop-color="#15131A"/><stop offset="1" stop-color="#241233"/></linearGradient><radialGradient id="halo"><stop stop-color="#8B5CF6" stop-opacity=".38"/><stop offset="1" stop-color="#651DDC" stop-opacity="0"/></radialGradient><filter id="blur"><feGaussianBlur stdDeviation="38"/></filter></defs><rect width="1200" height="630" fill="url(#bg)"/><circle cx="930" cy="155" r="220" fill="url(#halo)" filter="url(#blur)"/><g transform="translate(105 125)"><g transform="translate(0 18) scale(2.5)"><path d="M51.31 65.02c-3.82-2.91-4.64-8.17-10.83-9.7-2.84-.7-5.83-.74-8.69-.05-5.34 1.29-6.67 6.71-10 9.44-4.86 3.99-11.74 3.91-16.57.07-4.67-3.73-6.91-10.67-3.76-16.27L25.72 5.39C27.75 1.78 32.28.18 36.1.01c5.56-.24 10.19 2.81 12.29 7.79 1.78 4.24 1.51 8.94-.76 12.91l-6.3 11.03c-2.21 3.87-4.6 7.48-6.33 11.57-.7 1.66-.3 3.72.56 5.12s2.61 2.36 4.49 2.51c3.51.27 6.45-1.54 8.4-4.38 3.79-5.51 11.19-7.03 16.99-4 5.83 3.05 8.68 10.04 6.33 16.3-1.48 3.93-4.67 6.84-8.11 8.03-4.32 1.5-8.8.82-12.34-1.88Z" fill="#651DDC"/></g><text x="230" y="132" fill="#F8F7FA" font-family="Arial,Helvetica,sans-serif" font-size="108" font-weight="700" letter-spacing="-5">Aesost</text><text x="235" y="210" fill="#C9C2CF" font-family="Arial,Helvetica,sans-serif" font-size="29" font-weight="500">질문과 경험을 연결하는 커리어 플랫폼</text></g><g transform="translate(105 500)"><rect width="420" height="2" fill="#651DDC"/><text y="46" fill="#9D6CF0" font-family="Arial,Helvetica,sans-serif" font-size="20" font-weight="700" letter-spacing="3">QUESTION · EXPERIENCE · DIRECTION</text></g></svg>