<svg xmlns="http://www.w3.org/2000/svg" viewBox="0 0 1600 900" fill="none">
  <rect width="1600" height="900" fill="#F7F8FA"/>
  <rect x="94" y="70" width="1412" height="760" rx="18" fill="#FFFFFF" stroke="#E2E5EA"/>
  <rect x="94" y="70" width="236" height="760" rx="18" fill="#FFFFFF"/>
  <line x1="330" y1="70" x2="330" y2="830" stroke="#E7E9ED"/>
  <rect x="122" y="106" width="34" height="34" rx="9" fill="#7657F6"/>
  <text x="173" y="128" fill="#17181C" font-family="Arial,sans-serif" font-size="18" font-weight="700">SoloDesk</text>
  <text x="173" y="147" fill="#8A8F98" font-family="Arial,sans-serif" font-size="9">Independent Business OS</text>
  <rect x="116" y="190" width="192" height="46" rx="9" fill="#F2EEFF"/>
  <rect x="116" y="190" width="3" height="46" rx="1.5" fill="#7657F6"/>
  <text x="150" y="218" fill="#17181C" font-family="Arial,sans-serif" font-size="13" font-weight="700">Dashboard</text>
  <text x="150" y="270" fill="#6F747D" font-family="Arial,sans-serif" font-size="13">Clients</text>
  <text x="150" y="320" fill="#6F747D" font-family="Arial,sans-serif" font-size="13">Projects</text>
  <text x="150" y="370" fill="#6F747D" font-family="Arial,sans-serif" font-size="13">Finance</text>
  <text x="382" y="130" fill="#969AA3" font-family="Arial,sans-serif" font-size="10" font-weight="700">SOLO BUSINESS MANAGEMENT</text>
  <text x="382" y="172" fill="#17181C" font-family="Arial,sans-serif" font-size="30" font-weight="700">Good afternoon, Jaeyoung.</text>
  <rect x="382" y="216" width="246" height="118" rx="12" fill="#FFFFFF" stroke="#E4E7EB"/>
  <text x="404" y="244" fill="#969AA3" font-family="Arial,sans-serif" font-size="10">THIS MONTH</text><text x="404" y="290" fill="#17181C" font-family="Arial,sans-serif" font-size="28" font-weight="700">₩4,200,000</text><text x="404" y="316" fill="#969AA3" font-family="Arial,sans-serif" font-size="10">Revenue</text>
  <rect x="646" y="216" width="246" height="118" rx="12" fill="#FFFFFF" stroke="#E4E7EB"/>
  <text x="668" y="244" fill="#969AA3" font-family="Arial,sans-serif" font-size="10">OUTSTANDING</text><text x="668" y="290" fill="#17181C" font-family="Arial,sans-serif" font-size="28" font-weight="700">₩4,850,000</text><text x="668" y="316" fill="#969AA3" font-family="Arial,sans-serif" font-size="10">Unpaid invoices</text>
  <rect x="910" y="216" width="246" height="118" rx="12" fill="#FFFFFF" stroke="#E4E7EB"/>
  <text x="932" y="244" fill="#969AA3" font-family="Arial,sans-serif" font-size="10">ACTIVE</text><text x="932" y="290" fill="#17181C" font-family="Arial,sans-serif" font-size="28" font-weight="700">3</text><text x="932" y="316" fill="#969AA3" font-family="Arial,sans-serif" font-size="10">Projects</text>
  <rect x="1174" y="216" width="246" height="118" rx="12" fill="#FFFFFF" stroke="#E4E7EB"/>
  <text x="1196" y="244" fill="#969AA3" font-family="Arial,sans-serif" font-size="10">CLIENTS</text><text x="1196" y="290" fill="#17181C" font-family="Arial,sans-serif" font-size="28" font-weight="700">4</text><text x="1196" y="316" fill="#969AA3" font-family="Arial,sans-serif" font-size="10">Total clients</text>
  <rect x="382" y="354" width="680" height="398" rx="12" fill="#FFFFFF" stroke="#E4E7EB"/>
  <text x="406" y="390" fill="#969AA3" font-family="Arial,sans-serif" font-size="9" font-weight="700">PROJECT PIPELINE</text><text x="406" y="419" fill="#17181C" font-family="Arial,sans-serif" font-size="18" font-weight="700">Current work</text>
  <line x1="406" y1="456" x2="1038" y2="456" stroke="#EFF1F3"/>
  <text x="406" y="491" fill="#222328" font-family="Arial,sans-serif" font-size="12" font-weight="700">Corporate Website Renewal</text><text x="406" y="510" fill="#989CA5" font-family="Arial,sans-serif" font-size="9">Studio More</text><rect x="912" y="475" width="104" height="26" rx="13" fill="#EEEAFE"/><text x="934" y="492" fill="#6047C8" font-family="Arial,sans-serif" font-size="9" font-weight="700">In Progress</text>
  <line x1="406" y1="536" x2="1038" y2="536" stroke="#EFF1F3"/>
  <text x="406" y="571" fill="#222328" font-family="Arial,sans-serif" font-size="12" font-weight="700">Brand Identity System</text><text x="406" y="590" fill="#989CA5" font-family="Arial,sans-serif" font-size="9">Mori Living</text><rect x="932" y="555" width="84" height="26" rx="13" fill="#FFF1DF"/><text x="952" y="572" fill="#AD641B" font-family="Arial,sans-serif" font-size="9" font-weight="700">Review</text>
  <line x1="406" y1="616" x2="1038" y2="616" stroke="#EFF1F3"/>
  <text x="406" y="651" fill="#222328" font-family="Arial,sans-serif" font-size="12" font-weight="700">CRM Dashboard</text><text x="406" y="670" fill="#989CA5" font-family="Arial,sans-serif" font-size="9">Arc Health</text><rect x="912" y="635" width="104" height="26" rx="13" fill="#EEEAFE"/><text x="934" y="652" fill="#6047C8" font-family="Arial,sans-serif" font-size="9" font-weight="700">In Progress</text>
  <rect x="1082" y="354" width="338" height="230" rx="12" fill="#FFFFFF" stroke="#E4E7EB"/>
  <text x="1106" y="390" fill="#969AA3" font-family="Arial,sans-serif" font-size="9" font-weight="700">THIS MONTH</text><text x="1106" y="419" fill="#17181C" font-family="Arial,sans-serif" font-size="18" font-weight="700">Cash flow</text>
  <rect x="1112" y="509" width="20" height="48" rx="4" fill="#8068E8"/><rect x="1145" y="472" width="20" height="85" rx="4" fill="#8068E8"/><rect x="1178" y="492" width="20" height="65" rx="4" fill="#8068E8"/><rect x="1211" y="450" width="20" height="107" rx="4" fill="#8068E8"/><rect x="1244" y="484" width="20" height="73" rx="4" fill="#8068E8"/><rect x="1277" y="438" width="20" height="119" rx="4" fill="#8068E8"/><rect x="1310" y="462" width="20" height="95" rx="4" fill="#8068E8"/>
  <rect x="1082" y="602" width="338" height="150" rx="12" fill="#FFFFFF" stroke="#E4E7EB"/>
  <text x="1106" y="638" fill="#969AA3" font-family="Arial,sans-serif" font-size="9" font-weight="700">NEXT</text><text x="1106" y="667" fill="#17181C" font-family="Arial,sans-serif" font-size="18" font-weight="700">Upcoming</text><text x="1106" y="708" fill="#222328" font-family="Arial,sans-serif" font-size="11" font-weight="700">Brand Identity System</text><text x="1106" y="729" fill="#989CA5" font-family="Arial,sans-serif" font-size="9">Sep 12 · Mori Living</text>
  <line x1="116" y1="786" x2="298" y2="786" stroke="#E6E8EC"/><text x="116" y="812" fill="#858A93" font-family="Arial,sans-serif" font-size="9">AESOST CONCEPT SYSTEM</text>
</svg>