<svg xmlns="http://www.w3.org/2000/svg" viewBox="0 0 1200 675"><rect width="1200" height="675" fill="#111114"/><rect x="1" y="1" width="1198" height="673" fill="none" stroke="#2A2A2E"/><text x="48" y="69" fill="#F2F2F4" font-family="Arial" font-size="22" font-weight="600">NOW THERE</text><text x="1021" y="69" fill="#8B5CF6" font-family="Arial" font-size="13">GLOBAL TIME</text><rect x="48" y="101" width="1104" height="56" fill="#16161A" stroke="#29292E"/><text x="72" y="136" fill="#8D8D95" font-family="Arial" font-size="14">Search a country or city</text><g font-family="Arial"><rect x="48" y="189" width="344" height="186" fill="#16161A" stroke="#29292E"/><text x="72" y="226" fill="#8B5CF6" font-size="12">SEOUL / KOREA</text><text x="72" y="288" fill="#FFFFFF" font-size="48" font-weight="600">14:32</text><text x="72" y="327" fill="#A7A7AE" font-size="15">Working hours · Active</text><rect x="428" y="189" width="344" height="186" fill="#16161A" stroke="#29292E"/><text x="452" y="226" fill="#8B5CF6" font-size="12">LONDON / UK</text><text x="452" y="288" fill="#FFFFFF" font-size="48" font-weight="600">06:32</text><text x="452" y="327" fill="#A7A7AE" font-size="15">Early morning · Offline</text><rect x="808" y="189" width="344" height="186" fill="#16161A" stroke="#29292E"/><text x="832" y="226" fill="#8B5CF6" font-size="12">NEW YORK / USA</text><text x="832" y="288" fill="#FFFFFF" font-size="48" font-weight="600">01:32</text><text x="832" y="327" fill="#A7A7AE" font-size="15">Night · Offline</text><rect x="48" y="409" width="1104" height="218" fill="#151519" stroke="#29292E"/><text x="72" y="447" fill="#FFFFFF" font-size="18" font-weight="600">Overlap window</text><text x="72" y="478" fill="#86868E" font-size="13">Best time for all selected regions</text><line x1="88" y1="548" x2="1112" y2="548" stroke="#333339" stroke-width="6"/><line x1="476" y1="548" x2="724" y2="548" stroke="#8B5CF6" stroke-width="6"/><circle cx="476" cy="548" r="9" fill="#8B5CF6"/><circle cx="724" cy="548" r="9" fill="#8B5CF6"/><text x="445" y="590" fill="#DCDCE0" font-size="13">15:00 KST</text><text x="692" y="590" fill="#DCDCE0" font-size="13">18:00 KST</text></g></svg>