<svg xmlns="http://www.w3.org/2000/svg" viewBox="0 0 1200 675"><rect width="1200" height="675" fill="#F3F4F6"/><rect x="1" y="1" width="1198" height="673" rx="16" fill="#F8F9FB" stroke="#E2E5E9"/><rect x="36" y="34" width="1128" height="56" rx="10" fill="#FFFFFF" stroke="#E3E6EA"/><text x="62" y="69" fill="#17181C" font-family="Arial,sans-serif" font-size="17" font-weight="700">PROPOSAL MANAGEMENT</text><rect x="36" y="112" width="1128" height="88" rx="12" fill="#FFFFFF" stroke="#E3E6EA"/><g font-family="Arial,sans-serif"><text x="62" y="145" fill="#8A8F98" font-size="12">CURRENT PROJECT</text><text x="62" y="178" fill="#17181C" font-size="24" font-weight="700">Website Renewal Proposal</text><rect x="938" y="133" width="188" height="46" rx="9" fill="#7657F6"/><text x="982" y="162" fill="#FFFFFF" font-size="13" font-weight="700">SHARE PROPOSAL ↗</text></g><rect x="36" y="222" width="720" height="417" rx="12" fill="#FFFFFF" stroke="#E3E6EA"/><text x="62" y="260" fill="#17181C" font-family="Arial,sans-serif" font-size="18" font-weight="700">Proposal Preview</text><rect x="62" y="290" width="668" height="315" rx="10" fill="#FAFBFC" stroke="#E6E8EC"/><rect x="91" y="322" width="142" height="16" rx="4" fill="#7657F6"/><rect x="91" y="357" width="440" height="25" rx="4" fill="#202126"/><rect x="91" y="398" width="385" height="9" rx="4" fill="#C7CBD2"/><rect x="91" y="417" width="330" height="9" rx="4" fill="#D8DBE1"/><rect x="91" y="466" width="182" height="88" rx="8" fill="#FFFFFF" stroke="#E6E8EC"/><rect x="291" y="466" width="182" height="88" rx="8" fill="#FFFFFF" stroke="#E6E8EC"/><rect x="491" y="466" width="182" height="88" rx="8" fill="#FFFFFF" stroke="#E6E8EC"/><rect x="778" y="222" width="386" height="417" rx="12" fill="#FFFFFF" stroke="#E3E6EA"/><text x="804" y="260" fill="#17181C" font-family="Arial,sans-serif" font-size="18" font-weight="700">Access &amp; status</text><g font-family="Arial,sans-serif"><text x="804" y="307" fill="#8A8F98" font-size="12">CLIENT</text><text x="804" y="334" fill="#17181C" font-size="16">Sample Company</text><text x="804" y="383" fill="#8A8F98" font-size="12">STATUS</text><circle cx="810" cy="415" r="5" fill="#7657F6"/><text x="825" y="421" fill="#17181C" font-size="16">Viewed</text><text x="804" y="470" fill="#8A8F98" font-size="12">LAST ACTIVITY</text><text x="804" y="497" fill="#17181C" font-size="16">Today, 14:32</text><text x="804" y="546" fill="#8A8F98" font-size="12">ACCESS</text><text x="804" y="573" fill="#17181C" font-size="16">Private Link</text></g></svg>