<svg xmlns="http://www.w3.org/2000/svg" viewBox="0 0 1200 750" role="img" aria-labelledby="title desc">
<title id="title">Membership Admin system preview</title><desc id="desc">회원, 멤버십 플랜, 결제와 갱신 현황을 관리하는 대시보드 예시</desc>
<rect width="1200" height="750" fill="#0d0d0f"/>
<rect x="44" y="44" width="1112" height="662" rx="16" fill="#f6f7f9"/>
<rect x="44" y="44" width="214" height="662" rx="16" fill="#111216"/>
<circle cx="82" cy="84" r="17" fill="#7256e8"/><text x="82" y="90" text-anchor="middle" font-family="Arial,sans-serif" font-size="15" font-weight="700" fill="white">M</text>
<text x="112" y="82" font-family="Arial,sans-serif" font-size="15" font-weight="700" fill="#fff">Membership</text><text x="112" y="101" font-family="Arial,sans-serif" font-size="10" fill="#777c86">MEMBER OPERATIONS</text>
<g font-family="Arial,sans-serif" font-size="12" fill="#8f949f"><text x="70" y="160">Dashboard</text><text x="70" y="204">Members</text><text x="70" y="248">Plans</text><text x="70" y="292">Billing</text><text x="70" y="336">Activity</text></g>
<rect x="58" y="137" width="186" height="36" rx="8" fill="#202228"/>
<text x="70" y="160" font-family="Arial,sans-serif" font-size="12" font-weight="700" fill="#fff">Dashboard</text>
<text x="298" y="91" font-family="Arial,sans-serif" font-size="12" font-weight="700" fill="#969aa3">MEMBERSHIP OPERATIONS</text><text x="298" y="126" font-family="Arial,sans-serif" font-size="28" font-weight="700" fill="#17181c">Member overview</text>
<g>
<rect x="298" y="164" width="192" height="112" rx="12" fill="#fff" stroke="#e6e8ec"/><text x="316" y="190" font-family="Arial,sans-serif" font-size="11" fill="#969aa3">ACTIVE MEMBERS</text><text x="316" y="232" font-family="Arial,sans-serif" font-size="28" font-weight="700" fill="#17181c">184</text><text x="316" y="255" font-family="Arial,sans-serif" font-size="11" fill="#7256e8">+12 this month</text>
<rect x="506" y="164" width="192" height="112" rx="12" fill="#fff" stroke="#e6e8ec"/><text x="524" y="190" font-family="Arial,sans-serif" font-size="11" fill="#969aa3">EXPIRING SOON</text><text x="524" y="232" font-family="Arial,sans-serif" font-size="28" font-weight="700" fill="#17181c">16</text><text x="524" y="255" font-family="Arial,sans-serif" font-size="11" fill="#a65d16">Next 30 days</text>
<rect x="714" y="164" width="192" height="112" rx="12" fill="#fff" stroke="#e6e8ec"/><text x="732" y="190" font-family="Arial,sans-serif" font-size="11" fill="#969aa3">PENDING PAYMENT</text><text x="732" y="232" font-family="Arial,sans-serif" font-size="28" font-weight="700" fill="#17181c">8</text><text x="732" y="255" font-family="Arial,sans-serif" font-size="11" fill="#b94747">Needs action</text>
<rect x="922" y="164" width="192" height="112" rx="12" fill="#fff" stroke="#e6e8ec"/><text x="940" y="190" font-family="Arial,sans-serif" font-size="11" fill="#969aa3">MONTHLY REVENUE</text><text x="940" y="232" font-family="Arial,sans-serif" font-size="24" font-weight="700" fill="#17181c">₩9.8M</text><text x="940" y="255" font-family="Arial,sans-serif" font-size="11" fill="#16835f">+8.4%</text>
</g>
<rect x="298" y="300" width="518" height="350" rx="12" fill="#fff" stroke="#e6e8ec"/><text x="320" y="332" font-family="Arial,sans-serif" font-size="11" font-weight="700" fill="#969aa3">RECENT MEMBERS</text><text x="320" y="362" font-family="Arial,sans-serif" font-size="18" font-weight="700" fill="#17181c">Membership status</text>
<g font-family="Arial,sans-serif" font-size="12" fill="#17181c"><text x="320" y="410">김서윤</text><text x="500" y="410">Studio Plan</text><text x="650" y="410">Sep 28</text><text x="320" y="466">박도현</text><text x="500" y="466">Plus Plan</text><text x="650" y="466">Oct 12</text><text x="320" y="522">이유진</text><text x="500" y="522">Studio Plan</text><text x="650" y="522">Sep 18</text><text x="320" y="578">정하린</text><text x="500" y="578">Basic Plan</text><text x="650" y="578">Nov 02</text></g>
<g><rect x="714" y="393" width="75" height="24" rx="12" fill="#efecff"/><text x="751" y="409" text-anchor="middle" font-family="Arial,sans-serif" font-size="10" font-weight="700" fill="#5d45bf">ACTIVE</text><rect x="714" y="449" width="75" height="24" rx="12" fill="#e8f7f1"/><text x="751" y="465" text-anchor="middle" font-family="Arial,sans-serif" font-size="10" font-weight="700" fill="#16835f">PAID</text><rect x="714" y="505" width="75" height="24" rx="12" fill="#fff2df"/><text x="751" y="521" text-anchor="middle" font-family="Arial,sans-serif" font-size="10" font-weight="700" fill="#a65d16">EXPIRING</text><rect x="714" y="561" width="75" height="24" rx="12" fill="#efecff"/><text x="751" y="577" text-anchor="middle" font-family="Arial,sans-serif" font-size="10" font-weight="700" fill="#5d45bf">ACTIVE</text></g>
<rect x="838" y="300" width="276" height="350" rx="12" fill="#fff" stroke="#e6e8ec"/><text x="860" y="332" font-family="Arial,sans-serif" font-size="11" font-weight="700" fill="#969aa3">PLAN MIX</text><text x="860" y="362" font-family="Arial,sans-serif" font-size="18" font-weight="700" fill="#17181c">Members by plan</text>
<g font-family="Arial,sans-serif" font-size="11" fill="#6f737c"><text x="860" y="412">Studio Plan</text><text x="1050" y="412" text-anchor="end">88</text><text x="860" y="480">Plus Plan</text><text x="1050" y="480" text-anchor="end">61</text><text x="860" y="548">Basic Plan</text><text x="1050" y="548" text-anchor="end">35</text></g>
<g fill="#eceef2"><rect x="860" y="426" width="190" height="8" rx="4"/><rect x="860" y="494" width="190" height="8" rx="4"/><rect x="860" y="562" width="190" height="8" rx="4"/></g><g fill="#7256e8"><rect x="860" y="426" width="170" height="8" rx="4"/><rect x="860" y="494" width="120" height="8" rx="4"/><rect x="860" y="562" width="72" height="8" rx="4"/></g>
</svg>